<svg width="27" height="21" viewBox="0 0 27 21" fill="none" xmlns="http://www.w3.org/2000/svg">
<path d="M26.7948 8.54059V9.27919C26.7948 9.89108 26.2988 10.3871 25.6869 10.3871H25.3176L24.1122 18.8251C23.9562 19.9167 23.0213 20.7276 21.9186 20.7276H5.08125C3.97856 20.7276 3.04367 19.9167 2.88769 18.8251L1.68229 10.3871H1.31298C0.701097 10.3871 0.205078 9.89108 0.205078 9.27919V8.54059C0.205078 7.9287 0.701097 7.43268 1.31298 7.43268H4.42163L9.35089 0.655019C9.83075 -0.00473951 10.7546 -0.15066 11.4144 0.329202C12.0742 0.809064 12.2201 1.73292 11.7402 2.39272L8.07476 7.43268H18.9251L15.2597 2.39268C14.7798 1.73292 14.9257 0.809017 15.5855 0.329156C16.2452 -0.150706 17.1692 -0.00483183 17.6491 0.654972L22.5783 7.43268H25.6869C26.2988 7.43268 26.7948 7.9287 26.7948 8.54059ZM14.6079 16.6652V11.495C14.6079 10.8831 14.1118 10.3871 13.4999 10.3871C12.8881 10.3871 12.392 10.8831 12.392 11.495V16.6652C12.392 17.2771 12.8881 17.7731 13.4999 17.7731C14.1118 17.7731 14.6079 17.2771 14.6079 16.6652ZM19.7781 16.6652V11.495C19.7781 10.8831 19.2821 10.3871 18.6702 10.3871C18.0583 10.3871 17.5623 10.8831 17.5623 11.495V16.6652C17.5623 17.2771 18.0583 17.7731 18.6702 17.7731C19.2821 17.7731 19.7781 17.2771 19.7781 16.6652ZM9.43763 16.6652V11.495C9.43763 10.8831 8.94161 10.3871 8.32972 10.3871C7.71783 10.3871 7.22182 10.8831 7.22182 11.495V16.6652C7.22182 17.2771 7.71783 17.7731 8.32972 17.7731C8.94161 17.7731 9.43763 17.2771 9.43763 16.6652Z" fill="white"/>
</svg>
