<svg width="36" height="24" viewBox="0 0 36 24" fill="none" xmlns="http://www.w3.org/2000/svg">
<g clip-path="url(#clip0_3381_6866)">
<path d="M33.6 0H2.4C1.07452 0 0 1.07452 0 2.4C0 3.72548 1.07452 4.8 2.4 4.8H33.6C34.9255 4.8 36 3.72548 36 2.4C36 1.07452 34.9255 0 33.6 0Z" fill="#004F54"/>
<path d="M33.6 9.59998H2.4C1.07452 9.59998 0 10.6745 0 12C0 13.3255 1.07452 14.4 2.4 14.4H33.6C34.9255 14.4 36 13.3255 36 12C36 10.6745 34.9255 9.59998 33.6 9.59998Z" fill="#004F54"/>
<path d="M33.6 19.2H2.4C1.07452 19.2 0 20.2745 0 21.6C0 22.9255 1.07452 24 2.4 24H33.6C34.9255 24 36 22.9255 36 21.6C36 20.2745 34.9255 19.2 33.6 19.2Z" fill="#004F54"/>
</g>
<defs>
<clipPath id="clip0_3381_6866">
<rect width="36" height="24" fill="white"/>
</clipPath>
</defs>
</svg>
