<svg width="31" height="32" viewBox="0 0 31 32" fill="none" xmlns="http://www.w3.org/2000/svg">
<path d="M26.429 22.5347C25.2699 21.2434 23.1009 19.3009 23.1009 12.9378C23.1009 8.10477 19.8321 4.23588 15.4246 3.28669V1.99043C15.4246 0.891338 14.5654 0 13.5058 0C12.4462 0 11.587 0.891338 11.587 1.99043V3.28669C7.17947 4.23588 3.91071 8.10477 3.91071 12.9378C3.91071 19.3009 1.74174 21.2434 0.582553 22.5347C0.222558 22.9359 0.0629595 23.4155 0.0659595 23.8851C0.0725594 24.9052 0.84475 25.8755 1.99194 25.8755H25.0197C26.1668 25.8755 26.9396 24.9052 26.9456 23.8851C26.9486 23.4155 26.789 22.9353 26.429 22.5347ZM4.11771 22.8899C5.3909 21.1501 6.78288 18.2665 6.78948 12.9738C6.78948 12.9614 6.78588 12.9502 6.78588 12.9378C6.78588 9.09003 9.79424 5.97128 13.5058 5.97128C17.2174 5.97128 20.2257 9.09003 20.2257 12.9378C20.2257 12.9502 20.2221 12.9614 20.2221 12.9738C20.2287 18.2671 21.6207 21.1508 22.8939 22.8899H4.11771ZM13.5058 31.8468C15.625 31.8468 17.344 30.0648 17.344 27.866H9.66764C9.66764 30.0648 11.3866 31.8468 13.5058 31.8468Z" fill="#004F54"/>
<ellipse cx="23.4451" cy="8.32424" rx="6.68091" ry="6.92605" fill="#C14F6D"/>
</svg>
