<svg width="46" height="30" viewBox="0 0 46 30" fill="none" xmlns="http://www.w3.org/2000/svg">
<path d="M30.372 0H2.96094C2.44567 0.000470526 1.93944 0.132464 1.49217 0.382959C1.04491 0.633453 0.672076 0.993793 0.410452 1.42843C0.148829 1.86306 0.00745808 2.35697 0.000287095 2.86142C-0.00688389 3.36588 0.120393 3.86345 0.36956 4.30504L14.0745 28.5055C14.3312 28.9584 14.7069 29.3358 15.1628 29.5986C15.6187 29.8614 16.1381 30 16.6671 30C17.1961 30 17.7154 29.8614 18.1713 29.5986C18.6272 29.3358 19.0029 28.9584 19.2596 28.5055L32.9634 4.30504C33.2126 3.86345 33.3399 3.36588 33.3327 2.86142C33.3255 2.35697 33.1841 1.86306 32.9225 1.42843C32.6609 0.993793 32.2881 0.633453 31.8408 0.382959C31.3935 0.132464 30.8873 0.000470526 30.372 0Z" fill="#004F54"/>
<path d="M26.9249 28.0254H43.7723C44.1605 28.0247 44.5418 27.9249 44.8785 27.7359C45.2152 27.5468 45.4958 27.275 45.6925 26.9473C45.8891 26.6197 45.9951 26.2474 45.9999 25.8674C46.0047 25.4874 45.9082 25.1127 45.7199 24.7803L37.2996 9.91346C37.1064 9.57248 36.8236 9.28832 36.4804 9.09046C36.1373 8.89261 35.7463 8.78827 35.3481 8.78827C34.9498 8.78827 34.5588 8.89261 34.2157 9.09046C33.8725 9.28832 33.5897 9.57248 33.3965 9.91346L24.9728 24.7803C24.7843 25.113 24.6878 25.4881 24.6928 25.8685C24.6978 26.2489 24.8042 26.6215 25.0014 26.9493C25.1986 27.2771 25.4798 27.5488 25.8172 27.7375C26.1545 27.9263 26.5364 28.0255 26.9249 28.0254Z" fill="#004F54"/>
</svg>
