<svg width="25" height="25" viewBox="0 0 25 25" fill="none" xmlns="http://www.w3.org/2000/svg">
<g clip-path="url(#clip0_2241_36766)">
<path d="M13.0686 18.7206C13.0686 19.159 12.7129 19.5147 12.2745 19.5147C11.8361 19.5147 11.4804 19.1591 11.4804 18.7206L11.501 13.1709L5.93253 13.1709C5.49412 13.1709 5.13847 12.8152 5.13844 12.3768C5.13842 11.9384 5.4941 11.5827 5.93253 11.5827L11.501 11.5846L11.5204 5.99333C11.5204 5.55492 11.876 5.19926 12.3144 5.19924C12.7529 5.19922 13.1085 5.5549 13.1085 5.99333L13.0873 11.5846L18.6558 11.5846C19.0942 11.5846 19.4499 11.9402 19.4499 12.3787C19.4499 12.8171 19.0942 13.1727 18.6558 13.1727L13.0873 13.1709L13.0686 18.7206Z" fill="#004F54"/>
</g>
<defs>
<clipPath id="clip0_2241_36766">
<rect width="16.9412" height="16.9412" fill="white" transform="translate(12.5437 0.648071) rotate(45)"/>
</clipPath>
</defs>
</svg>
